<?xml version="1.0" encoding="utf-8"?>
<!-- Generator: Adobe Illustrator 26.4.1, SVG Export Plug-In . SVG Version: 6.00 Build 0)  -->
<svg version="1.0" id="katman_1" xmlns="http://www.w3.org/2000/svg" xmlns:xlink="http://www.w3.org/1999/xlink" x="0px" y="0px"
	 viewBox="0 0 841.89 595.28" style="enable-background:new 0 0 841.89 595.28;" xml:space="preserve">
<style type="text/css">
	.st0{fill:none;stroke:#00993E;stroke-width:10.4686;stroke-miterlimit:10;}
	.st1{fill:#00993E;}
	.st2{fill:#FFFFFF;}
</style>
<circle class="st0" cx="420.59" cy="297.36" r="165.25"/>
<circle class="st0" cx="420.59" cy="297.36" r="237.18"/>
<g>
	<path class="st1" d="M239.78,280.77c0.6,1.76,0.85,3.51,0.73,5.25c-0.19,2.75-0.83,5.19-1.94,7.32c-1.1,2.13-2.55,3.89-4.33,5.29
		c-1.78,1.39-3.83,2.42-6.15,3.07c-2.32,0.65-4.78,0.89-7.4,0.71c-2.68-0.18-5.14-0.75-7.39-1.72c-2.24-0.96-4.17-2.25-5.77-3.88
		c-1.61-1.63-2.82-3.57-3.65-5.83c-0.82-2.26-1.14-4.77-0.95-7.52c0.13-1.84,0.52-3.61,1.19-5.3c0.67-1.69,1.59-3.19,2.76-4.51
		c1.17-1.32,2.57-2.38,4.21-3.17c1.64-0.8,3.49-1.23,5.54-1.29l-0.51,7.54c-2.04,0.33-3.61,1.13-4.71,2.41
		c-1.1,1.27-1.71,2.86-1.84,4.78c-0.12,1.78,0.12,3.31,0.72,4.6c0.6,1.29,1.46,2.36,2.56,3.21c1.11,0.85,2.38,1.5,3.83,1.95
		c1.45,0.45,2.96,0.73,4.54,0.84c1.51,0.1,2.99,0.03,4.44-0.23c1.45-0.25,2.77-0.73,3.96-1.42c1.19-0.69,2.17-1.64,2.95-2.83
		c0.77-1.19,1.22-2.68,1.34-4.46c0.18-2.62-0.34-4.68-1.57-6.2c-1.23-1.51-3.09-2.48-5.59-2.88l-0.54,7.95l-5.88-0.4l1.03-15.09
		l19.41,1.32l-0.34,5.03l-4.13,0.53C238.01,277.37,239.17,279.01,239.78,280.77z"/>
	<path class="st1" d="M217.09,259.14c-2-1.4-3.62-3.05-4.87-4.97c-1.24-1.92-2.04-4.07-2.39-6.45s-0.15-4.9,0.59-7.55
		c0.75-2.69,1.89-4.95,3.41-6.8c1.53-1.84,3.32-3.26,5.37-4.26c2.06-1,4.3-1.57,6.74-1.73c2.43-0.16,4.95,0.12,7.53,0.85
		c2.53,0.7,4.77,1.75,6.74,3.13s3.56,3.03,4.77,4.94c1.21,1.91,1.99,4.04,2.32,6.4c0.34,2.36,0.13,4.89-0.62,7.57
		c-0.74,2.66-1.87,4.91-3.38,6.78c-1.51,1.86-3.28,3.3-5.31,4.3c-2.02,1-4.24,1.59-6.64,1.76c-2.4,0.17-4.87-0.1-7.39-0.8
		C221.39,261.59,219.09,260.53,217.09,259.14z M230.49,255.36c1.47,0.04,2.86-0.15,4.17-0.59c1.31-0.44,2.46-1.16,3.46-2.17
		c1-1.01,1.74-2.38,2.21-4.09c0.48-1.71,0.55-3.27,0.22-4.65c-0.33-1.38-0.94-2.6-1.83-3.65c-0.89-1.05-1.98-1.94-3.26-2.66
		c-1.28-0.72-2.65-1.29-4.11-1.69c-1.52-0.43-3.04-0.66-4.56-0.72c-1.52-0.06-2.94,0.13-4.27,0.56c-1.32,0.43-2.49,1.16-3.48,2.17
		c-1,1.01-1.74,2.38-2.21,4.09c-0.48,1.72-0.55,3.27-0.22,4.65c0.33,1.38,0.95,2.6,1.86,3.66c0.91,1.06,2.03,1.95,3.36,2.69
		c1.33,0.74,2.76,1.32,4.28,1.74C227.56,255.1,229.02,255.32,230.49,255.36z"/>
	<path class="st1" d="M229.5,218.32c-1.67-1.77-2.93-3.73-3.75-5.86c-0.83-2.13-1.17-4.4-1.02-6.8c0.14-2.4,0.85-4.83,2.12-7.27
		c1.28-2.48,2.86-4.46,4.73-5.96s3.91-2.52,6.13-3.07c2.22-0.55,4.53-0.66,6.95-0.32c2.42,0.34,4.82,1.13,7.2,2.37
		c2.33,1.2,4.31,2.69,5.96,4.45c1.64,1.76,2.86,3.7,3.66,5.81c0.8,2.11,1.12,4.36,0.97,6.74c-0.15,2.38-0.87,4.81-2.15,7.29
		c-1.27,2.45-2.83,4.43-4.69,5.94c-1.86,1.51-3.89,2.56-6.07,3.13c-2.19,0.57-4.47,0.69-6.86,0.37c-2.38-0.33-4.74-1.09-7.07-2.3
		C233.21,221.6,231.18,220.09,229.5,218.32z M243.39,217.36c1.43,0.34,2.83,0.44,4.2,0.27s2.65-0.64,3.83-1.42
		c1.18-0.79,2.18-1.97,3-3.55c0.82-1.58,1.21-3.08,1.17-4.5c-0.04-1.42-0.39-2.74-1.05-3.95c-0.66-1.21-1.54-2.3-2.65-3.27
		c-1.11-0.97-2.33-1.8-3.67-2.5c-1.4-0.73-2.84-1.27-4.32-1.64c-1.48-0.37-2.91-0.47-4.29-0.32c-1.38,0.15-2.67,0.62-3.85,1.41
		c-1.18,0.79-2.18,1.97-3,3.55c-0.82,1.58-1.21,3.08-1.17,4.5c0.04,1.42,0.4,2.74,1.07,3.96c0.67,1.22,1.59,2.33,2.74,3.32
		c1.15,0.99,2.43,1.85,3.83,2.58C240.58,216.5,241.96,217.02,243.39,217.36z"/>
	<path class="st1" d="M251.77,161.87c1.46-1.8,3.1-3.25,4.94-4.34c1.83-1.09,3.78-1.74,5.85-1.94c2.07-0.21,4.23,0.07,6.47,0.82
		c2.24,0.76,4.53,2.07,6.85,3.95c2.04,1.65,3.71,3.43,5.01,5.35c1.3,1.92,2.15,3.91,2.55,5.98c0.4,2.07,0.32,4.19-0.24,6.35
		c-0.56,2.16-1.71,4.31-3.44,6.46l-9.76,12.07L242,173.94L251.77,161.87z M274.23,180.75c0.72-0.89,1.27-1.87,1.66-2.94
		c0.39-1.07,0.51-2.2,0.38-3.39c-0.14-1.19-0.58-2.42-1.34-3.68c-0.76-1.26-1.9-2.51-3.44-3.76c-1.41-1.14-2.8-2.03-4.16-2.68
		c-1.36-0.64-2.7-0.98-4.01-1.01c-1.32-0.03-2.61,0.3-3.87,0.98c-1.27,0.68-2.51,1.78-3.74,3.3l-3.55,4.39l17.64,14.27
		L274.23,180.75z"/>
	<path class="st1" d="M291.38,123.88l20.86,15.76l0.08-0.06l-7.3-24.95l9.22-6.25l20.21,29.79l-6.13,4.16L314,121.21l-0.08,0.06
		l7.02,26.06l-5.05,3.42l-21.48-15.95l-0.08,0.06l14.18,20.9l-6.13,4.16l-20.21-29.78L291.38,123.88z"/>
	<path class="st1" d="M342.39,96.1l26.04,28.26l-7.61,3.1l-5.54-6.4l-12.47,5.08l0.41,8.49l-7.38,3l-0.97-38.47L342.39,96.1z
		 M351.14,116.37l-9.18-10.52l-0.09,0.04l0.64,14L351.14,116.37z"/>
	<path class="st1" d="M370.7,87.28l19.45,20.75l0.1-0.02l-4.71-23.68l7.27-1.45l7.02,35.3l-7.76,1.54l-19.38-20.71l-0.1,0.02
		l4.7,23.63l-7.27,1.45l-7.02-35.3L370.7,87.28z"/>
	<path class="st1" d="M431.59,114.97c-2.73,2.36-6.49,3.54-11.3,3.53c-4.88-0.01-8.64-1.19-11.31-3.55c-2.67-2.36-4-5.99-3.99-10.9
		l0.04-22.38l7.92,0.01l-0.04,22.38c0,0.98,0.08,1.93,0.25,2.87c0.17,0.94,0.52,1.77,1.05,2.5c0.53,0.72,1.28,1.31,2.24,1.77
		c0.96,0.46,2.24,0.68,3.86,0.69c2.82,0.01,4.77-0.62,5.85-1.88s1.62-3.23,1.62-5.92l0.04-22.38l7.91,0.01l-0.04,22.38
		C435.68,108.99,434.32,112.61,431.59,114.97z"/>
	<path class="st1" d="M472.28,87.65l-1.19,6.55l-17.11-3.1l-1.48,8.19l14.83,2.69l-1.1,6.05l-14.83-2.69l-2.65,14.63l-7.79-1.41
		l6.41-35.42L472.28,87.65z"/>
	<path class="st1" d="M495.13,95.08l0.93,38.42l-7.76-2.69l0.05-8.46l-12.71-4.41l-5.29,6.65l-7.53-2.61l24.65-29.55L495.13,95.08z
		 M488.33,116.09l0.04-13.96l-0.09-0.03l-8.76,10.94L488.33,116.09z"/>
	<path class="st1" d="M530.56,122.99c-0.03-0.89-0.21-1.76-0.53-2.61c-0.33-0.85-0.8-1.63-1.41-2.35c-0.62-0.72-1.34-1.32-2.19-1.81
		c-1.54-0.89-3.03-1.34-4.45-1.37c-1.42-0.02-2.76,0.27-4,0.89c-1.25,0.62-2.4,1.48-3.44,2.59c-1.05,1.11-1.96,2.34-2.75,3.71
		c-0.75,1.31-1.34,2.67-1.74,4.09s-0.56,2.81-0.46,4.18c0.1,1.38,0.52,2.67,1.25,3.89c0.73,1.22,1.87,2.27,3.42,3.16
		c2.1,1.21,4.1,1.51,6.02,0.91c1.92-0.6,3.61-1.88,5.08-3.82l6.64,3.82c-1.3,1.85-2.77,3.35-4.4,4.51c-1.63,1.15-3.36,1.94-5.2,2.36
		c-1.83,0.42-3.72,0.46-5.65,0.12c-1.93-0.34-3.86-1.06-5.79-2.17c-2.39-1.38-4.3-3.03-5.73-4.96c-1.43-1.93-2.38-4-2.85-6.21
		c-0.47-2.21-0.49-4.5-0.06-6.87c0.44-2.37,1.31-4.69,2.61-6.96c1.34-2.33,2.94-4.29,4.78-5.88c1.85-1.59,3.85-2.75,6.02-3.48
		c2.16-0.73,4.44-0.97,6.84-0.71c2.39,0.25,4.78,1.07,7.17,2.44c1.72,0.99,3.2,2.17,4.44,3.55c1.24,1.38,2.2,2.89,2.86,4.53
		c0.66,1.64,0.98,3.39,0.97,5.24c-0.02,1.85-0.45,3.74-1.28,5.66l-6.64-3.82C530.43,124.75,530.59,123.88,530.56,122.99z"/>
	<path class="st1" d="M544.82,128.67l4.3-5.08l22.5,19.06l-4.3,5.08l-8.23-6.97l-18.96,22.39l-6.04-5.11l18.96-22.39L544.82,128.67z
		"/>
	<path class="st1" d="M569.16,190.7c-3.56-0.6-6.86-2.76-9.91-6.48c-3.09-3.77-4.57-7.43-4.45-10.99c0.12-3.56,2.08-6.89,5.88-10
		l17.31-14.19l5.02,6.12l-17.3,14.19c-0.76,0.62-1.44,1.29-2.06,2.02c-0.62,0.73-1.04,1.53-1.26,2.4c-0.22,0.87-0.2,1.82,0.06,2.85
		c0.26,1.03,0.9,2.17,1.92,3.41c1.79,2.18,3.51,3.29,5.17,3.32c1.66,0.03,3.52-0.8,5.6-2.51l17.31-14.19l5.02,6.12l-17.31,14.19
		C576.38,190.06,572.71,191.3,569.16,190.7z"/>
	<path class="st1" d="M613.16,199.55c0.78,1.41,1.26,2.81,1.43,4.19c0.17,1.39,0.08,2.7-0.27,3.95c-0.35,1.25-0.92,2.37-1.73,3.38
		c-0.81,1-1.82,1.84-3.02,2.51c-1.85,1.02-3.67,1.52-5.46,1.49c-1.78-0.03-3.52-0.73-5.2-2.11l-0.09,0.05
		c0.24,0.98,0.27,1.89,0.09,2.72c-0.18,0.83-0.5,1.6-0.96,2.32c-0.47,0.72-1.05,1.38-1.76,1.98c-0.7,0.6-1.44,1.15-2.2,1.65
		c-0.48,0.31-1.05,0.66-1.71,1.06c-0.66,0.4-1.33,0.84-1.99,1.3c-0.67,0.46-1.27,0.95-1.81,1.46c-0.55,0.51-0.95,1.05-1.21,1.62
		l-3.83-6.92c0.79-0.94,1.85-1.83,3.18-2.68c1.33-0.85,2.59-1.72,3.75-2.59c1.52-1.15,2.45-2.31,2.79-3.5
		c0.34-1.19,0.03-2.65-0.93-4.39l-3.83-6.93l-12.31,6.81l-3.83-6.93l31.49-17.42L613.16,199.55z M597.54,204.96
		c0.88,1.59,1.89,2.58,3.03,2.99c1.15,0.4,2.51,0.17,4.1-0.71c1.53-0.85,2.42-1.86,2.67-3.03c0.25-1.18-0.06-2.56-0.94-4.15
		l-4.2-7.59l-8.87,4.9L597.54,204.96z"/>
	<path class="st1" d="M624.63,226.24l-33.69,12.66l-2.78-7.41l33.69-12.66L624.63,226.24z"/>
	<path class="st1" d="M630.19,244.03l-20.27,19.95l0.02,0.1l23.56-5.29l1.62,7.23L600,273.9l-1.74-7.72l20.23-19.88l-0.02-0.1
		l-23.51,5.28l-1.62-7.23l35.12-7.88L630.19,244.03z"/>
	<path class="st1" d="M601.39,300.46c-0.76-1.7-1.15-3.42-1.19-5.17c-0.06-2.75,0.37-5.24,1.29-7.46c0.91-2.22,2.19-4.1,3.84-5.65
		c1.65-1.55,3.6-2.74,5.85-3.6c2.25-0.85,4.69-1.3,7.31-1.36c2.69-0.05,5.19,0.3,7.51,1.06c2.32,0.76,4.35,1.88,6.1,3.36
		c1.74,1.48,3.13,3.31,4.14,5.49c1.02,2.18,1.56,4.65,1.61,7.41c0.04,1.85-0.2,3.64-0.72,5.38c-0.52,1.74-1.31,3.32-2.35,4.74
		c-1.05,1.42-2.35,2.59-3.91,3.53c-1.56,0.94-3.36,1.53-5.41,1.77l-0.15-7.56c2.01-0.51,3.5-1.45,4.48-2.81
		c0.98-1.36,1.45-3,1.41-4.92c-0.04-1.78-0.41-3.29-1.12-4.52c-0.71-1.23-1.66-2.22-2.83-2.97c-1.18-0.75-2.51-1.29-3.99-1.61
		s-3.02-0.47-4.6-0.44c-1.51,0.03-2.98,0.24-4.4,0.62c-1.42,0.38-2.69,0.97-3.82,1.77c-1.13,0.8-2.02,1.82-2.69,3.08
		c-0.66,1.26-0.98,2.78-0.94,4.56c0.05,2.62,0.76,4.63,2.11,6.03c1.36,1.4,3.3,2.19,5.82,2.38l-0.16-7.96l5.89-0.12l0.31,15.12
		L601.33,311l-0.1-5.04l4.07-0.89C603.45,303.7,602.15,302.16,601.39,300.46z"/>
</g>
<g>
	<path class="st1" d="M326.35,455.91c1.83,1.16,3.22,2.41,4.17,3.75c0.95,1.34,1.55,2.71,1.8,4.09c0.25,1.39,0.21,2.76-0.13,4.11
		c-0.34,1.36-0.89,2.63-1.65,3.84c-0.74,1.18-1.66,2.22-2.74,3.12c-1.09,0.9-2.31,1.53-3.67,1.9c-1.36,0.37-2.85,0.41-4.47,0.13
		c-1.62-0.28-3.35-1-5.18-2.15l-6.77-4.27l-6.63,10.5l-6.44-4.07l18.49-29.3L326.35,455.91z M315.88,468.59
		c0.74,0.47,1.49,0.86,2.24,1.18c0.75,0.32,1.49,0.49,2.21,0.5c0.72,0.01,1.42-0.17,2.09-0.54c0.68-0.38,1.31-1.03,1.9-1.96
		c0.59-0.93,0.9-1.78,0.95-2.56c0.05-0.77-0.09-1.48-0.41-2.12c-0.32-0.64-0.79-1.23-1.4-1.78c-0.61-0.54-1.29-1.04-2.03-1.51
		l-5.01-3.16l-5.54,8.78L315.88,468.59z"/>
	<path class="st1" d="M356.45,470.65c1.44,0.58,2.64,1.34,3.61,2.28c0.96,0.93,1.69,1.97,2.19,3.12c0.5,1.14,0.74,2.34,0.74,3.58
		c0,1.24-0.25,2.48-0.75,3.7c-0.77,1.89-1.83,3.36-3.18,4.41c-1.36,1.06-3.08,1.58-5.17,1.57l-0.04,0.09
		c0.77,0.59,1.34,1.25,1.71,1.98c0.37,0.73,0.59,1.5,0.68,2.32c0.09,0.82,0.05,1.67-0.12,2.55c-0.17,0.87-0.38,1.73-0.65,2.56
		c-0.18,0.52-0.39,1.13-0.64,1.84c-0.25,0.7-0.48,1.43-0.7,2.18c-0.22,0.75-0.38,1.48-0.47,2.19c-0.1,0.71-0.07,1.36,0.07,1.94
		l-7.06-2.87c0.02-1.18,0.28-2.49,0.76-3.93c0.48-1.44,0.9-2.85,1.24-4.21c0.44-1.78,0.43-3.21-0.03-4.31
		c-0.46-1.1-1.58-2-3.35-2.72l-7.06-2.87l-5.1,12.54l-7.06-2.87l13.05-32.09L356.45,470.65z M348.03,484.15
		c1.62,0.66,2.98,0.79,4.08,0.4c1.1-0.39,1.98-1.39,2.64-3.01c0.63-1.56,0.69-2.85,0.17-3.89c-0.52-1.03-1.59-1.88-3.21-2.54
		l-7.73-3.14L340.3,481L348.03,484.15z"/>
	<path class="st1" d="M387.73,479.45l4.99,36.65l-7.71-1.75l-0.85-8.1l-12.64-2.86l-4.35,6.92l-7.48-1.69l20.42-30.9L387.73,479.45z
		 M383.46,500.27l-1.45-13.36l-0.1-0.02l-7.21,11.4L383.46,500.27z"/>
	<path class="st1" d="M422.72,491.82c-0.43-0.74-0.98-1.4-1.64-1.97c-0.66-0.57-1.42-1.02-2.26-1.36c-0.85-0.33-1.74-0.52-2.68-0.55
		c-1.71-0.05-3.18,0.23-4.4,0.86c-1.22,0.63-2.22,1.48-2.99,2.58c-0.78,1.09-1.36,2.34-1.75,3.76c-0.38,1.41-0.6,2.88-0.65,4.4
		c-0.05,1.45,0.08,2.87,0.38,4.26c0.3,1.39,0.8,2.64,1.51,3.76c0.71,1.12,1.65,2.04,2.83,2.74c1.17,0.7,2.62,1.08,4.33,1.13
		c2.33,0.07,4.17-0.58,5.52-1.96c1.35-1.38,2.21-3.23,2.58-5.55l7.37,0.23c-0.26,2.16-0.83,4.1-1.69,5.82
		c-0.86,1.72-1.98,3.17-3.34,4.36c-1.36,1.19-2.95,2.08-4.74,2.67c-1.8,0.59-3.76,0.85-5.9,0.79c-2.65-0.08-5.02-0.62-7.11-1.61
		c-2.09-0.99-3.84-2.31-5.24-3.98c-1.4-1.66-2.46-3.6-3.17-5.8c-0.71-2.21-1.02-4.57-0.94-7.09c0.08-2.59,0.54-4.97,1.39-7.17
		c0.85-2.19,2.02-4.09,3.53-5.69c1.51-1.6,3.33-2.84,5.48-3.71c2.15-0.87,4.55-1.26,7.2-1.18c1.91,0.06,3.7,0.39,5.38,0.99
		c1.68,0.6,3.18,1.45,4.49,2.54c1.31,1.09,2.37,2.43,3.2,4.01c0.83,1.58,1.32,3.37,1.48,5.39l-7.37-0.23
		C423.41,493.37,423.15,492.56,422.72,491.82z"/>
	<path class="st1" d="M433.17,488.98l-0.9-6.34l28.11-3.98l0.9,6.34l-10.28,1.46l3.96,27.96l-7.54,1.07l-3.96-27.96L433.17,488.98z"
		/>
	<path class="st1" d="M470.49,475.56l8.79,33.51l-7.37,1.93l-8.79-33.51L470.49,475.56z"/>
	<path class="st1" d="M499.95,474.65c-0.7-0.5-1.46-0.88-2.3-1.13c-0.84-0.25-1.71-0.36-2.62-0.32c-0.91,0.04-1.8,0.24-2.67,0.59
		c-1.58,0.65-2.81,1.51-3.66,2.57c-0.86,1.07-1.42,2.26-1.68,3.57s-0.29,2.69-0.06,4.14c0.22,1.45,0.63,2.87,1.2,4.28
		c0.55,1.35,1.25,2.59,2.08,3.74c0.84,1.14,1.8,2.08,2.91,2.82c1.11,0.74,2.34,1.19,3.7,1.35c1.36,0.16,2.83-0.08,4.42-0.73
		c2.16-0.88,3.57-2.23,4.24-4.04c0.67-1.81,0.71-3.85,0.09-6.12l6.83-2.79c0.64,2.08,0.92,4.08,0.83,6
		c-0.09,1.92-0.51,3.7-1.27,5.34c-0.76,1.64-1.85,3.1-3.25,4.37c-1.4,1.27-3.09,2.31-5.07,3.12c-2.46,1-4.84,1.48-7.15,1.43
		c-2.31-0.05-4.45-0.55-6.41-1.5c-1.96-0.95-3.71-2.28-5.26-4.01c-1.55-1.73-2.8-3.76-3.75-6.09c-0.98-2.4-1.53-4.77-1.65-7.11
		c-0.12-2.34,0.18-4.56,0.91-6.63c0.72-2.08,1.89-3.95,3.49-5.62c1.61-1.67,3.64-3.01,6.09-4.01c1.77-0.72,3.54-1.15,5.32-1.29
		c1.78-0.13,3.49,0.03,5.13,0.5c1.64,0.46,3.16,1.25,4.56,2.36c1.4,1.11,2.58,2.55,3.55,4.32l-6.83,2.79
		C501.22,475.79,500.65,475.16,499.95,474.65z"/>
	<path class="st1" d="M529.18,447.17l3.42,5.42l-15.47,9.76l3.96,6.28l14.2-8.96l3.16,5.01l-14.2,8.96l4.53,7.18l15.8-9.97
		l3.42,5.42l-22.24,14.03L507.26,461L529.18,447.17z"/>
</g>
<path class="st1" d="M585.84,297.36c0,47.26-19.85,89.9-51.66,120H306.98c-31.79-30.1-51.64-72.74-51.64-120
	c0-47.26,19.85-89.9,51.64-120h227.21C566,207.46,585.84,250.1,585.84,297.36z"/>
<g>
	<path class="st2" d="M308.31,231.29c0-19.23,9.7-29.95,27.91-29.95s27.91,10.72,27.91,29.95v10.21h-17.7v-11.4
		c0-7.83-3.23-11.74-9.7-11.74s-9.7,3.91-9.7,11.74v65.18c0,7.66,3.23,11.57,9.7,11.57s9.7-3.91,9.7-11.57v-23.31h-9.36v-17.02
		h27.06v38.97c0,19.23-9.7,29.95-27.91,29.95s-27.91-10.72-27.91-29.95V231.29z"/>
	<path class="st2" d="M376.38,322.16V203.04h26.38l12.42,86.45l12.42-86.45h26.38v119.13h-17.7v-90.2l-13.95,90.2h-15.66
		l-13.95-90.2v90.2H376.38z"/>
	<path class="st2" d="M467.93,322.16V203.04h27.57c18.55,0,27.91,9.87,27.91,29.44v11.74c0,19.57-9.36,29.44-27.91,29.44h-8.85v48.5
		H467.93z M486.65,256.64h8.85c6.13,0,9.19-3.06,9.19-11.23v-14.12c0-8.17-3.06-11.23-9.19-11.23h-8.85V256.64z"/>
</g>
<g>
	<path class="st2" d="M310.68,355.59c0-7.82,4.09-12.35,11.63-12.35s11.63,4.52,11.63,12.35v5.31h-7.46v-5.81
		c0-3.09-1.29-4.67-3.95-4.67s-3.95,1.58-3.95,4.67v28.06c0,3.09,1.29,4.59,3.95,4.59s3.95-1.51,3.95-4.59v-7.32h7.46v6.75
		c0,7.82-4.09,12.35-11.63,12.35s-11.63-4.52-11.63-12.35V355.59z"/>
	<path class="st2" d="M338.6,394.2v-50.24h21.53v7.18h-13.64v13.28h10.84v7.18h-10.84v15.43h13.64v7.18H338.6z"/>
	<path class="st2" d="M364.36,394.2v-50.24h11.7c8.11,0,11.7,3.73,11.7,11.56v3.09c0,5.24-1.72,8.54-5.17,9.91v0.14
		c3.52,1.08,5.24,4.67,5.24,10.62v8.83c0,2.73,0.29,4.74,0.86,6.1h-8.04c-0.5-1.44-0.72-3.52-0.72-6.17v-9.19
		c0-4.59-1.29-6.17-4.95-6.17h-2.73v21.53H364.36z M372.26,365.49h2.87c3.16,0,4.74-1.51,4.74-5.31v-3.88
		c0-3.45-1.36-5.17-4.02-5.17h-3.59V365.49z"/>
	<path class="st2" d="M399.25,394.2v-43.07h-8.25v-7.18h24.4v7.18h-8.25v43.07H399.25z"/>
	<path class="st2" d="M419.2,394.2v-50.24h7.9v50.24H419.2z"/>
	<path class="st2" d="M432.98,394.2v-50.24h20.89v7.18h-12.99v14h10.19v7.18h-10.19v21.89H432.98z"/>
	<path class="st2" d="M457.67,394.2v-50.24h7.9v50.24H457.67z"/>
	<path class="st2" d="M471.45,394.2v-50.24h21.53v7.18h-13.64v13.28h10.84v7.18h-10.84v15.43h13.64v7.18H471.45z"/>
	<path class="st2" d="M497.21,394.2v-50.24h12.06c7.82,0,11.77,4.16,11.77,12.42v25.41c0,8.25-3.95,12.42-11.77,12.42H497.21z
		 M505.11,387.03h4.02c2.66,0,4.02-1.65,4.02-4.88v-26.13c0-3.23-1.36-4.88-4.02-4.88h-4.02V387.03z"/>
</g>
<polygon class="st1" points="240.77,365.28 246.12,379.41 261.21,380.13 249.42,389.58 253.4,404.15 240.77,395.87 228.14,404.15 
	232.12,389.58 220.34,380.13 235.42,379.41 "/>
<polygon class="st1" points="600.39,365.28 605.74,379.41 620.83,380.13 609.04,389.58 613.02,404.15 600.39,395.87 587.76,404.15 
	591.74,389.58 579.96,380.13 595.04,379.41 "/>
</svg>
